<svg width="224" height="48" viewBox="0 0 224 48" fill="none" xmlns="http://www.w3.org/2000/svg" role="img" aria-labelledby="title">
  <title>CampusSwap</title>
  <rect x="1" y="1" width="46" height="46" rx="14" fill="#0F172A"/>
  <path d="M15 18.5C15 14.9 17.9 12 21.5 12H33.5C34.3 12 35 12.7 35 13.5V29.5C35 33.1 32.1 36 28.5 36H16.5C15.7 36 15 35.3 15 34.5V18.5Z" fill="#F8FAFC"/>
  <path d="M20 20H30.5C32.4 20 34 21.6 34 23.5C34 25.4 32.4 27 30.5 27H23.5C21.6 27 20 28.6 20 30.5C20 32.4 21.6 34 23.5 34H33" stroke="#0F172A" stroke-width="3" stroke-linecap="round"/>
  <path d="M14 14L35 35" stroke="#FACC15" stroke-width="3" stroke-linecap="round"/>
  <text x="60" y="31" fill="#0F172A" font-family="Inter, ui-sans-serif, system-ui, -apple-system, BlinkMacSystemFont, 'Segoe UI', sans-serif" font-size="25" font-weight="800" letter-spacing="0">CampusSwap</text>
</svg>
